<svg height="512pt" viewBox="0 -12 512.048 512" width="512pt" xmlns="http://www.w3.org/2000/svg"><path d="m352.023438 80.03125c13.28125 0 24 10.722656 24 24 0 13.28125-10.71875 24-24 24s-24-10.71875-24-24c0-13.277344 10.71875-24 24-24zm0 0" fill="#656d78"/><path d="m430.742188 183.953125c6-14.800781 9.28125-30.960937 9.28125-47.921875 0-8.238281-.800782-16.238281-2.238282-24.078125h58.238282v.078125c4.402343 0 7.921874 3.519531 8 7.921875h-.078126c0 35.4375-28.640624 64-64 64zm0 0" fill="#ed5565"/><path d="m437.785156 111.953125c1.4375 7.832031 2.238282 15.832031 2.238282 24.078125 0 16.960938-3.28125 33.128906-9.28125 47.921875h-.078126c-10 24.878906-27.601562 45.832031-49.839843 60-19.832031 12.71875-43.441407 20.078125-68.800781 20.078125-32.480469 0-62.160157-12.078125-84.800782-32.160156-26.488281-23.359375-43.199218-57.597656-43.199218-95.839844 0-70.71875 57.28125-128 128-128 62.402343 0 114.480468 44.722656 125.761718 103.921875zm-61.761718-7.921875c0-13.277344-10.71875-24-24-24s-24 10.722656-24 24c0 13.28125 10.71875 24 24 24s24-10.71875 24-24zm0 0" fill="#ffce54"/><path d="m311.945312 319.871094c44.230469 0 80 35.832031 80 80 0 42.640625-33.359374 77.511718-75.449218 79.914062-1.511719 0-3.039063.085938-4.550782.085938h-71.839843c-88.480469 0-160-71.519532-160.082031-160zm0 0" fill="#ffce54"/><path d="m80.023438 319.871094c.082031 88.480468 71.601562 160 160.082031 160h-72c-88.480469 0-160.082031-71.597656-160.082031-160.085938v-151.914062c0 35.359375 28.640624 64 64 64h155.199218c22.640625 20.082031 52.320313 32.160156 84.800782 32.160156 25.359374 0 48.960937-7.359375 68.800781-20.078125 35.601562 22.71875 59.128906 62.558594 59.128906 107.917969 0 69.191406-54.808594 125.511718-123.449219 127.914062 42.089844-2.402344 75.449219-37.273437 75.449219-79.914062 0-44.167969-35.769531-80-80-80zm0 0" fill="#f6bb42"/><path d="m311.984375 487.855469c-4.425781 0-8-3.574219-8-8 0-4.421875 3.574219-8 8-8 66.167969 0 120-53.832031 120-120 0-41.152344-20.726563-78.960938-55.441406-101.160157-3.71875-2.382812-4.808594-7.328124-2.429688-11.054687 2.382813-3.71875 7.320313-4.816406 11.054688-2.433594 39.328125 25.160157 62.816406 68.007813 62.816406 114.640625 0 75-61.007813 136.007813-136 136.007813zm0 0"/><path d="m311.984375 487.855469c-4.425781 0-8-3.574219-8-8 0-4.421875 3.574219-8 8-8 39.703125 0 72-32.296875 72-72s-32.296875-72-72-72c-4.425781 0-8-3.574219-8-8 0-4.421875 3.574219-8 8-8 48.519531 0 88 39.480469 88 88s-39.472656 88-88 88zm0 0"/><path d="m240.152344 487.878906c-92.679688 0-168.089844-75.40625-168.089844-168.085937 0-4.425781 3.578125-8 8-8 4.425781 0 8 3.574219 8 8 0 83.855469 68.226562 152.085937 152.089844 152.085937 4.421875 0 8 3.578125 8 8 0 4.425782-3.585938 8-8 8zm0 0"/><path d="m168.089844 487.878906c-92.683594 0-168.089844-75.40625-168.089844-168.085937 0-4.425781 3.574219-8 8-8s8 3.574219 8 8c0 83.855469 68.222656 152.085937 152.089844 152.085937 4.421875 0 8 3.578125 8 8 0 4.425782-3.578125 8-8 8zm0 0"/><path d="m311.984375 487.863281h-143.894531c-4.425782 0-8-3.574219-8-8 0-4.421875 3.574218-8 8-8h143.894531c4.421875 0 8 3.578125 8 8 0 4.425781-3.578125 8-8 8zm0 0"/><path d="m227.199219 239.863281h-155.136719c-4.421875 0-8-3.574219-8-8 0-4.421875 3.578125-8 8-8h155.144531c4.425781 0 8 3.578125 8 8 0 4.425781-3.582031 8-8.007812 8zm0 0"/><path d="m311.984375 327.824219h-231.921875c-4.421875 0-8-3.578125-8-8 0-4.425781 3.578125-8 8-8h231.921875c4.421875 0 8 3.574219 8 8 0 4.421875-3.578125 8-8 8zm0 0"/><path d="m8.039062 327.792969c-4.421874 0-7.9999995-3.578125-7.9999995-8v-151.953125c0-4.425782 3.5781255-8 7.9999995-8 4.425782 0 8 3.574218 8 8v151.953125c0 4.421875-3.574218 8-8 8zm0 0"/><path d="m72.0625 239.855469c-39.703125 0-72.0078125-32.304688-72.0078125-72.015625 0-4.425782 3.5781245-8 8.0000005-8 4.425781 0 8 3.574218 8 8 0 30.886718 25.128906 56.015625 56.007812 56.015625 4.425781 0 8 3.578125 8 8 0 4.425781-3.574219 8-8 8zm0 0"/><path d="m496.046875 119.960938h-58.292969c-4.425781 0-8-3.578126-8-8 0-4.425782 3.574219-8 8-8h58.292969c4.425781 0 8 3.574218 8 8 0 4.421874-3.574219 8-8 8zm0 0"/><path d="m439.910156 191.96875c-4.421875 0-8-3.578125-8-8 0-4.425781 3.578125-8 8-8 30.875 0 56-25.128906 56-56 0-4.425781 3.578125-8 8-8 4.425782 0 8 3.574219 8 8 0 39.703125-32.292968 72-72 72zm0 0"/><path d="m439.910156 191.96875h-9.199218c-4.421876 0-8-3.578125-8-8 0-4.425781 3.578124-8 8-8h9.199218c4.425782 0 8 3.574219 8 8 0 4.421875-3.574218 8-8 8zm0 0"/><path d="m504.046875 128.023438c-4.421875 0-8-3.574219-8-8v-.015626c-4.421875 0-8-3.566406-8-7.992187 0-4.414063 3.578125-7.992187 8-7.992187 8.824219 0 16 7.175781 16 16 0 4.425781-3.574219 8-8 8zm0 0"/><path d="m352.015625 136.023438c-17.648437 0-32-14.351563-32-32 0-17.648438 14.351563-32 32-32s32 14.351562 32 32c0 17.648437-14.351563 32-32 32zm0-48c-8.824219 0-16 7.175781-16 16 0 8.824218 7.175781 16 16 16s16-7.175782 16-16c0-8.824219-7.175781-16-16-16zm0 0"/><path d="m312.015625 272.023438c-74.992187 0-136-61.007813-136-136 0-74.992188 61.007813-136.0000005 136-136.0000005s136 61.0078125 136 136.0000005c0 74.992187-61.007813 136-136 136zm0-256c-66.167969 0-120 53.832031-120 120 0 66.167968 53.832031 120 120 120s120-53.832032 120-120c0-66.167969-53.824219-120-120-120zm0 0"/></svg>