<svg height="512pt" viewBox="0 -12 512.048 512" width="512pt" xmlns="http://www.w3.org/2000/svg"><path d="m496.671875 104.089844c-.214844-.019532-.40625-.128906-.625-.128906h-52.007813c-14.472656-59.535157-68.09375-103.9375005-132.023437-103.9375005-74.992187 0-136 61.0078125-136 136.0000005 0 33.480468 12.214844 64.128906 32.351563 87.839843h-136.261719c-.015625 0-.027344-.007812-.042969-.007812-30.878906 0-56.007812-25.128907-56.007812-56.015625 0-4.425782-3.574219-8-8-8h-.015626c-4.421874 0-7.9999995 3.574218-7.9999995 8v151.761718c0 .070313-.0390625.125-.0390625.191407 0 92.679687 75.40625 168.085937 168.089844 168.085937.03125 0 .046875-.015625.078125-.015625h71.679687c.105469 0 .199219.015625.304688.015625.03125 0 .046875-.015625.078125-.015625h71.761719c.015624 0 .03125-.007812.054687-.007812 3.015625-.007813 5.992187-.160157 8.929687-.457031 70.808594-4.664063 127.015626-63.582032 127.015626-135.542969 0-42.777344-19.808594-82.328125-53.425782-108 17.699219-13.574219 31.953125-31.351563 41.273438-51.886719h4.082031c39.382813 0 71.4375-31.792969 71.949219-71.046875.03125-.3125.175781-.578125.175781-.898437 0-8.609376-6.855469-15.597657-15.375-15.933594zm-184.839844 223.734375c.054688 0 .105469.03125.160157.03125 39.703124 0 72 32.296875 72 72s-32.296876 72-72 72c-.015626 0-.023438.007812-.039063.007812h-72.113281c-81-.167969-147.160156-64.023437-151.367188-144.039062zm120.152344 24.03125c0 37.664062-17.472656 71.289062-44.703125 93.304687 8.007812-13.257812 12.703125-28.726562 12.703125-45.304687 0-48.457031-39.367187-87.871094-87.792969-87.992188-.078125 0-.144531-.039062-.207031-.039062h-231.769531c-.054688 0-.101563-.03125-.160156-.03125-4.421876 0-8 3.574219-8 8v.023437.007813.007812c.015624 67.214844 39.792968 125.175781 96.953124 152.03125h-.929687c-.023437 0-.039063.015625-.0625.015625-83.777344-.039062-151.917969-68.160156-152.007813-151.925781 0-.058594.03125-.105469.03125-.160156v-106.808594c13.199219 16.351563 33.375 26.855469 55.96875 26.871094.023438 0 .039063.007812.054688.007812h152.328125c23.6875 20.023438 54.25 32.160157 87.625 32.160157 24.960937 0 48.296875-6.871094 68.425781-18.65625 32.335938 22.472656 51.542969 58.921874 51.542969 98.488281zm-119.96875-95.832031c-66.167969 0-120-53.832032-120-120 0-66.167969 53.832031-120 120-120s120 53.832031 120 120c0 66.167968-53.824219 120-120 120zm130.023437-80.167969c3.863282-12.597657 5.976563-25.976563 5.976563-39.832031 0-5.449219-.414063-10.785157-1.039063-16.0625h48.832032c.039062 0 .0625.023437.101562.023437-.007812 30.144531-23.988281 54.75-53.871094 55.871094zm0 0"/><path d="m352.015625 72.023438c-17.648437 0-32 14.351562-32 32 0 17.648437 14.351563 32 32 32s32-14.351563 32-32c0-17.648438-14.351563-32-32-32zm0 48c-8.824219 0-16-7.175782-16-16 0-8.824219 7.175781-16 16-16s16 7.175781 16 16c0 8.824218-7.175781 16-16 16zm0 0"/></svg>